<?xml version="1.0" encoding="UTF-8"?>
<svg version="1.1" xmlns="http://www.w3.org/2000/svg" width="512" height="512">
<path d="M0 0 C20.47117517 19.54066721 25.79334648 49.20658326 26.47265625 76.2890625 C27.15134051 111.77198221 22.1420285 146.99633324 14.0625 181.5 C13.83328857 182.49040283 13.60407715 183.48080566 13.36791992 184.5012207 C10.25921242 197.11139107 5.08408298 204.34892125 -5.875 211.375 C-12.60643891 215.35406241 -19.5060526 218.54774485 -26.8125 221.3125 C-27.43592285 221.55178223 -28.0593457 221.79106445 -28.70166016 222.03759766 C-52.36117622 230.95079559 -77.43209872 235.00429799 -102.34017944 238.61453247 C-121.6890277 241.19663715 -121.6890277 241.19663715 -140.5 246.1875 C-141.34755859 246.47431641 -142.19511719 246.76113281 -143.06835938 247.05664062 C-151.82921541 250.13008055 -160.27842363 253.92580144 -168.76412964 257.67471313 C-218.43582429 279.58463799 -218.43582429 279.58463799 -236.6875 273.25 C-241.86890318 270.03753003 -245.55864275 266.28862893 -247.25 260.3125 C-249.18441156 248.11552607 -246.12404316 236.48945078 -242.984375 224.78881836 C-239.09208338 210.2702367 -239.59629418 197.19381453 -241.84965515 182.43414497 C-242.22939831 179.93379434 -242.59581884 177.43180252 -242.95861816 174.92893982 C-243.9902227 167.81754391 -245.03146929 160.70778375 -246.11279297 153.60375977 C-252.69212524 110.23860004 -257.70161629 61.38422199 -231.08203125 23.26171875 C-208.91188698 -5.54802122 -177.99055357 -18.01226235 -142.8125 -22.6875 C-101.70138699 -27.35002031 -34.31743979 -26.19768841 0 0 Z M-166.5625 5.375 C-167.60011475 5.70999512 -167.60011475 5.70999512 -168.65869141 6.05175781 C-179.7926396 9.83077048 -188.52063334 16.06279537 -196.8125 24.3125 C-197.51117188 24.97636719 -198.20984375 25.64023438 -198.9296875 26.32421875 C-213.57770733 41.28571761 -217.81234799 62.4810382 -218.04296875 82.62890625 C-217.75987375 87.15362805 -217.05102165 91.39279145 -214.5625 95.25 C-211.8375751 96.90441869 -209.92817893 96.75759699 -206.8125 96.3125 C-204.12288903 94.2281807 -202.94992025 93.04343301 -202.31420898 89.66210938 C-202.31235596 88.67017578 -202.31050293 87.67824219 -202.30859375 86.65625 C-202.28990234 85.55023438 -202.27121094 84.44421875 -202.25195312 83.3046875 C-202.25130859 82.15226562 -202.25066406 80.99984375 -202.25 79.8125 C-202.18245356 63.02238584 -198.60946718 46.98429845 -186.8125 34.3125 C-177.36134271 25.25729284 -166.42005017 20.33702648 -153.58984375 18.1484375 C-150.300135 17.15828606 -148.90822294 16.0098187 -146.8125 13.3125 C-146.14573122 9.76999949 -146.14573122 9.76999949 -146.8125 6.3125 C-148.21380685 4.17674561 -148.21380685 4.17674561 -150.8125 3.3125 C-156.44534556 3.01288056 -161.18035087 3.61969001 -166.5625 5.375 Z " fill="#000000" transform="translate(296.8125,130.6875)"/>
<path d="M0 0 C38.80917234 -0.91387376 74.02977041 6.89948486 109 24 C109.7410498 24.3609375 110.48209961 24.721875 111.24560547 25.09375 C123.83283254 31.2998213 139.412594 39.19884969 145 53 C145.82556434 57.70498616 146.07765593 62.12730108 143.64453125 66.35546875 C137.95680605 73.04764874 131.57427323 76.39385905 123.3125 78.875 C105.7924403 84.48628775 92.90046017 95.11103544 79.65625 107.52734375 C77.51904234 109.51683264 75.35375946 111.42844275 73.125 113.3125 C64.69072677 120.63281261 56.73330084 128.75252571 49.51171875 137.265625 C46.83546473 140.33605597 43.9063223 143.14983852 41 146 C40.175 146.845625 39.35 147.69125 38.5 148.5625 C37.675 149.366875 36.85 150.17125 36 151 C35.55914062 151.44859375 35.11828125 151.8971875 34.6640625 152.359375 C30.68073428 156.12028388 26.23666387 158.68131023 21.4375 161.25 C20.80021973 161.59135986 20.16293945 161.93271973 19.50634766 162.28442383 C14.39523788 164.94455724 9.86629465 167 4 167 C4.13051758 166.31824707 4.26103516 165.63649414 4.39550781 164.93408203 C6.83148261 152.15054704 9.18519852 139.35944104 11.1875 126.5 C11.34186523 125.52562988 11.49623047 124.55125977 11.65527344 123.54736328 C14.05648428 107.79364918 15.35418723 92.23111603 15.31567383 76.29370117 C15.31250539 73.56714091 15.33613551 70.84166269 15.36132812 68.11523438 C15.44252403 45.58628067 12.02363356 24.66684491 1.35546875 4.6953125 C0 2 0 2 0 0 Z " fill="#000000" transform="translate(321,138)"/>
<path d="M0 0 C-10.74673201 17.04966766 -31.25308211 23.80755099 -49.9375 28.25 C-51.28829222 28.5176336 -52.64249365 28.7688207 -54 29 C-54.64066406 29.11085938 -55.28132813 29.22171875 -55.94140625 29.3359375 C-70.63678431 31.39942512 -86.70479625 31.11602359 -100 24 C-100 23.34 -100 22.68 -100 22 C-78.55564279 12.50263664 -57.95957712 7.93750362 -34.85693359 4.81689453 C-25.65981228 3.56929585 -16.5708769 2.11322773 -7.50756836 0.07983398 C-2.18777533 -1.09388767 -2.18777533 -1.09388767 0 0 Z " fill="#000000" transform="translate(234,377)"/>
</svg>
